<svg width="612" height="661" viewBox="0 0 612 661" fill="none" xmlns="http://www.w3.org/2000/svg">
<path fill-rule="evenodd" clip-rule="evenodd" d="M329.5 28.7132C432 28.7132 425.291 -3.7424 465.5 7.7865C508.096 20.0003 524.964 42.553 553.759 76.2357C583.507 111.034 575.465 164.157 581.729 209.507C586.815 246.323 582.798 283.031 587.418 319.909C592.176 357.889 618.834 394.457 609.55 431.591C600.307 468.559 555.053 485.296 537.599 519.169C516.408 560.29 534.539 623.919 496.716 650.554C459.984 676.423 408.206 644.653 363.365 641.869C326.561 639.585 290.74 635.961 253.869 635.481C211.074 634.924 163.225 660.945 126.61 638.785C90.1301 616.706 92.656 561.522 70.9886 524.796C51.5195 491.796 15.5131 468.858 4.67675 432.107C-6.16701 395.331 9.42669 356.526 10.0688 318.189C10.7528 277.353 -11.9019 232.027 8.61944 196.715C29.5417 160.713 88.5528 166.533 116.264 135.453C147.903 99.9688 137.692 34.4188 177.073 7.78651C213.545 -16.8782 285.666 24.5673 329.5 28.7132Z" fill="#223A59"/>
</svg>
